<mxfile host="app.diagrams.net" modified="2024-07-01T06:44:52.970Z" agent="Mozilla/5.0 (Macintosh; Intel Mac OS X 10_15_7) AppleWebKit/537.36 (KHTML, like Gecko) Chrome/126.0.0.0 Safari/537.36" version="24.6.4" etag="OpgI-vUAs6lFyZJ32fAo" type="github">
  <diagram name="Page-1" id="2c7nrXeOON2Nw-3h2Y89">
    <mxGraphModel>
      <root>
        <mxCell id="0" />
        <mxCell id="1" parent="0" />
      </root>
    </mxGraphModel>
  </diagram>
</mxfile>
